<?xml version="1.0" standalone="no"?>
<!DOCTYPE svg PUBLIC "-//W3C//DTD SVG 20010904//EN"
 "http://www.w3.org/TR/2001/REC-SVG-20010904/DTD/svg10.dtd">
<svg version="1.0" xmlns="http://www.w3.org/2000/svg"
 width="600.000000pt" height="600.000000pt" viewBox="0 0 600.000000 600.000000"
 preserveAspectRatio="xMidYMid meet">
<metadata>
Created by potrace 1.14, written by Peter Selinger 2001-2017
</metadata>
<g transform="translate(0.000000,600.000000) scale(0.100000,-0.100000)"
fill="#000000" stroke="none">
<path d="M4430 4663 c-789 -530 -1440 -966 -1446 -969 -6 -3 -652 425 -1435
951 l-1424 955 -3 -1927 c-1 -1060 1 -1930 5 -1934 5 -5 487 -316 1073 -693
l1065 -686 712 0 713 0 1072 721 c590 397 1081 729 1091 738 16 16 17 117 15
1912 l-3 1896 -1435 -964z m1238 -2739 c-7 -7 -469 -319 -1025 -693 l-1012
-681 -655 0 -654 0 -1006 648 -1006 647 0 1698 c0 933 2 1697 5 1697 3 0 602
-401 1332 -890 l1327 -891 335 224 c185 123 793 531 1351 906 l1015 681 3
-1667 c2 -1325 -1 -1670 -10 -1679z"/>
<path d="M4226 4070 c-688 -461 -1255 -836 -1260 -832 -6 3 -488 326 -1071
717 -583 391 -1135 762 -1227 823 l-168 112 0 -1472 1 -1473 910 -585 c501
-322 924 -593 940 -603 l29 -19 0 905 0 905 -487 334 c-268 183 -491 335 -495
336 -4 2 -8 -160 -8 -360 l0 -363 210 -140 209 -140 1 -188 c0 -153 -2 -187
-13 -180 -7 4 -169 116 -360 248 l-347 239 0 729 0 729 29 -19 c15 -10 373
-252 795 -538 l766 -520 0 -987 0 -988 300 0 301 0 -7 988 -7 987 802 543
c441 299 809 546 817 549 12 5 14 -19 12 -172 l-3 -178 -662 -456 -663 -456 0
-902 c0 -497 1 -903 3 -903 1 0 432 290 957 643 l955 643 3 357 c1 196 0 357
-3 357 -3 0 -296 -196 -650 -435 -355 -240 -651 -438 -660 -441 -13 -5 -15 17
-15 177 l1 184 664 443 665 442 0 900 c0 495 -3 900 -7 900 -5 -1 -570 -378
-1257 -840z"/>
</g>
</svg>
